<svg xmlns="http://www.w3.org/2000/svg" viewBox="0 0 520 140" width="520" height="140" role="img" aria-label="Quanterios wordmark (dark)">
  <title>Quanterios — Cryptography, managed.</title>
  <defs>
    <linearGradient id="wgd" x1="0" y1="0" x2="1" y2="1">
      <stop offset="0%" stop-color="#818CF8"/>
      <stop offset="100%" stop-color="#22D3EE"/>
    </linearGradient>
    <radialGradient id="wgdcore" cx="50%" cy="50%" r="50%">
      <stop offset="0%" stop-color="#67E8F9"/>
      <stop offset="60%" stop-color="#6366F1"/>
      <stop offset="100%" stop-color="#1E1B4B"/>
    </radialGradient>
  </defs>
  <rect width="520" height="140" fill="#0F172A"/>

  <g transform="translate(8 25) scale(0.7)">
    <g transform="rotate(30 64 64)" opacity="0.4">
      <g stroke="url(#wgd)" stroke-width="1.6" fill="none" stroke-linecap="round" stroke-linejoin="round">
        <path d="M64 28 L100 64 L64 100 L28 64 Z"/>
      </g>
      <g fill="url(#wgd)">
        <circle cx="64" cy="28" r="3"/>
        <circle cx="100" cy="64" r="3"/>
        <circle cx="64" cy="100" r="3"/>
        <circle cx="28" cy="64" r="3"/>
      </g>
    </g>
    <g stroke="url(#wgd)" stroke-width="3" fill="none" stroke-linecap="round" stroke-linejoin="round">
      <path d="M64 22 L106 64 L64 106 L22 64 Z"/>
      <path d="M64 22 L64 106" opacity="0.5"/>
      <path d="M22 64 L106 64" opacity="0.5"/>
      <path d="M43 43 L85 43 L85 85 L43 85 Z" opacity="0.4" stroke-width="2"/>
    </g>
    <g fill="url(#wgd)">
      <circle cx="64" cy="22" r="6"/>
      <circle cx="106" cy="64" r="6"/>
      <circle cx="64" cy="106" r="6"/>
      <circle cx="22" cy="64" r="6"/>
      <circle cx="43" cy="43" r="3.5" opacity="0.9"/>
      <circle cx="85" cy="43" r="3.5" opacity="0.9"/>
      <circle cx="85" cy="85" r="3.5" opacity="0.9"/>
      <circle cx="43" cy="85" r="3.5" opacity="0.9"/>
    </g>
    <g>
      <circle cx="64" cy="64" r="11" fill="none" stroke="url(#wgd)" stroke-width="1.2" stroke-opacity="0.6"/>
      <circle cx="64" cy="64" r="7.5" fill="url(#wgdcore)"/>
      <circle cx="64" cy="64" r="2.6" fill="#F8FAFC"/>
    </g>
  </g>

  <text x="104" y="78" font-family="Inter, 'IBM Plex Sans', system-ui, sans-serif" font-size="54" font-weight="600" letter-spacing="-1.5" fill="#F8FAFC">quanterios</text>
  <text x="106" y="104" font-family="Inter, 'IBM Plex Sans', system-ui, sans-serif" font-size="14" font-weight="400" letter-spacing="2" fill="#94A3B8">CRYPTOGRAPHY, MANAGED.</text>
</svg>
